<?xml version="1.0" encoding="utf-8"?>
<!-- Generator: Adobe Illustrator 28.3.0, SVG Export Plug-In . SVG Version: 6.00 Build 0)  -->
<svg version="1.1" id="Layer_1" xmlns="http://www.w3.org/2000/svg" xmlns:xlink="http://www.w3.org/1999/xlink" x="0px" y="0px"
	 viewBox="0 0 377.7 124.2" style="enable-background:new 0 0 377.7 124.2;" xml:space="preserve">
<g id="ESsPTC.tif">
	<g>
		<path d="M72.6,115.2c-5.3,0-10.6,0-16,0c-0.2-1-0.5-1.9-0.7-2.9c-0.6-2.6-1.2-5.3-1.7-7.9c-0.1-0.4-0.1-0.8-0.2-1.2
			c0-1.2,0-2.4,0-3.7c-0.3-0.1-0.6-0.1-0.9-0.2c-0.4-1.9-0.8-3.8-1.3-5.9c0.8,0,1.4,0,2.1,0c0-1.4,0-2.6,0-3.9
			c-0.8-0.2-1.7-0.1-2.6-0.1c0,0.5-0.1,0.9-0.1,1.3c0,0-0.1,0-0.1,0c-1.2-5.8-2.5-11.5-3.7-17.3c0.3-0.1,0.5-0.1,0.8-0.2
			c0-1.3,0-2.5,0-3.9c-0.5,0-1,0-1.6,0c-0.5-2-0.9-4-1.3-6c1,0,1.9,0,3,0c0-1.4,0-2.6,0-4c-1,0-2,0-3.1,0c0,1,0,2.1,0,3.1
			c0,0-0.1,0-0.1,0c-0.4-1.6-0.7-3.2-1.1-4.9c-0.3,0-0.6,0-0.8,0.1c-0.1,0.6-0.2,1.1-0.4,1.6c-1.3,0-2.5,0-3.8,0c0,1.4,0,2.6,0,4
			c1.1,0,2.1,0,3.2,0c-0.3,2-0.7,4-1,6c-0.7,0-1.4,0-2.2,0c0,1.4,0,2.6,0,4c0.5,0,1,0,1.5,0c-0.3,2-0.7,4-1,5.9
			c-0.2,0.1-0.4,0.2-0.5,0.2c-0.1,1.4,0,2.8-0.2,4.1c-0.3,2.3-0.8,4.5-1.2,6.7c-0.3,2-0.7,4.1-1,6.1c-0.2,1-0.3,1.9-0.5,2.9
			c-1,0-2,0-3,0c0,1.3,0,2.6,0,4c0.7,0,1.4,0,2.3,0c-0.2,2-0.6,3.8-0.9,5.8c-0.4,0-0.9,0.1-1.4,0.1c0,1.3,0,2.6,0,4
			c0.2,0.1,0.4,0.2,0.6,0.3c-0.1,0.8-0.3,1.6-0.4,2.3c-1,0.2-22.3,0.3-26.4,0.1c-0.1-0.1-0.2-0.3-0.3-0.5c1-6.3,2.1-12.6,3.1-18.9
			c0.1,0,0.2,0,0.3-0.1c0.2-1,0.4-2.1,0.6-3.2c0.4,0,0.7,0,1.1-0.1c0-1.3,0-2.6,0-3.9c-0.1-0.1-0.3-0.1-0.5-0.2
			c0.2-1.7,0.5-3.3,0.6-5c0-1.4,0.4-2.8,0.7-4.2c0.4-2.4,0.8-4.7,1.2-7.1c0.4-2.3,0.7-4.5,1.1-6.8c0.3-1.6,0.6-3.3,0.9-4.9
			c0,0.6,0,1.2,0,1.8c0.8,0.2,1.5,0.1,2.3,0.1c0-1.3,0-2.6,0-3.9c-0.6,0-1.2-0.1-1.8-0.1c0.3-2,0.7-3.9,1-5.9
			c0.3-0.1,0.5-0.1,0.8-0.1c0-0.1,0.1-0.2,0.1-0.3c0-1.2-0.2-2.5-0.1-3.7c0.1-1.4,0.2-2.9,0.4-4.3c0.3-2.4,0.8-4.7,1.1-7.1
			c0.4-2.3,0.8-4.6,1.2-6.8c0.3-1.6,0.5-3.2,0.8-4.8c0.1,0,0.2,0.1,0.3,0.1c0.2-0.9,0.3-1.9,0.5-2.9c0.7,0,1.3,0,2,0
			c0-1.4,0-2.6,0-4c-0.4,0-0.9-0.1-1.4-0.1c0.2-1.2,0.4-2.3,0.6-3.4c0.3-0.1,0.5-0.1,0.8-0.1c0.1-0.2,0.1-0.3,0.2-0.5
			c1,0,1.9,0,2.9,0c0.1,0.2,0.2,0.4,0.2,0.6c1,0,1.9,0,2.9,0c0.1-0.2,0.2-0.4,0.3-0.6c0.8,0,1.5,0,2.2,0c0.1,0.2,0.2,0.4,0.2,0.6
			c1.2,0,2.4,0,3.5,0c0.1-0.2,0.2-0.4,0.2-0.6c0.6,0,1.2,0,1.8,0c0.1,0.2,0.1,0.4,0.2,0.6c1.2,0,2.3,0,3.5,0
			c0.1-0.2,0.1-0.4,0.2-0.6c0.7,0,1.5,0,2.2,0c0.1,0.2,0.2,0.4,0.3,0.6c1,0,1.9,0,2.9,0c0.1-0.2,0.2-0.4,0.2-0.6c1,0,1.9,0,2.9,0
			c0.1,0.2,0.2,0.4,0.2,0.6c0.8,0,1.6,0,2.5,0c0.1-0.2,0.2-0.4,0.3-0.6c1,0,1.9,0,2.9,0c0.7,1.2,0.4,2.7,0.9,4
			c-0.1,0.1-0.2,0.2-0.4,0.3c0,1.2,0,2.5,0,3.8c0.4,0,0.8,0.1,1.3,0.1c0.1,0.2,0.2,0.4,0.2,0.6c1.4,5,2.6,10.1,3.9,15.1
			c0.2,0.9,0.4,1.8,0.7,2.7c0.5,2.4,1.1,4.8,1.6,7.2c0,0.1,0,0.1,0,0.3c-0.4,0-0.9,0.1-1.3,0.1c0,1.3,0,2.6,0,3.9c0.5,0,1,0,1.6,0
			c0-1.2,0-2.4,0-3.5c0,0,0.1,0,0.1,0c1.2,4.8,2.4,9.7,3.5,14.5c0.4,1.5,0.9,3,1,4.7c0,0.4,0,0.8,0,1.2c0,1,0,2.1,0,3.2
			c0.4,0,0.8,0,1.2,0c0-0.4,0.1-0.7,0.1-1.2c0.2,0,0.5-0.1,0.8-0.1c1.3-2.3,2.7-4.6,4-7c0.1,0.1,0.2,0.2,0.3,0.4
			c0.2-0.4,0.5-0.8,0.7-1.2c0-0.3,0-0.7,0.1-1c1.8-3,3.5-6.1,5.3-9.1c0.1,0.2,0.2,0.3,0.3,0.5c0.2-0.4,0.5-0.8,0.7-1.2
			c0-0.3,0-0.6,0-0.9c1.6-2.8,3.2-5.6,4.8-8.4c0.1,0.1,0.2,0.2,0.2,0.3c0.3-0.4,0.7-0.8,1.2-1.3c0-0.3,0-0.8,0-1.4
			c1.5-2.6,3-5.2,4.5-7.8c0.1,0.1,0.1,0.2,0.2,0.4c0.2-0.3,0.4-0.6,0.6-0.9c0.3,0,0.6-0.1,0.9-0.1c0-0.8,0-1.6,0-2.4
			c1.4-2.4,2.7-4.7,4.1-7.1c0.1,0.1,0.2,0.2,0.2,0.4c0.2-0.3,0.3-0.5,0.5-0.8c0.5,0,0.9,0,1.4-0.1c0-1.1,0-2.2,0-3.3
			c0.9-1.6,1.8-3.2,2.7-4.7c0.2,0,0.5,0,0.7,0c0.1,0.2,0.2,0.4,0.2,0.6c0.9,0,1.7,0,2.5,0c0.1-0.2,0.2-0.4,0.2-0.6c1,0,1.9,0,2.9,0
			c0.1,0.2,0.2,0.4,0.2,0.6c1,0,1.9,0,2.9,0c0.1-0.2,0.2-0.4,0.2-0.6c0.8,0,1.6,0,2.5,0c0.1,0.2,0.1,0.4,0.2,0.6c1.1,0,2.2,0,3.3,0
			c0.1-0.2,0.2-0.4,0.2-0.6c0.6,0,1.2,0,1.8,0c0.1,0.2,0.1,0.3,0.2,0.6c1.2,0,2.3,0,3.5,0c0.1-0.2,0.1-0.3,0.2-0.5
			c0.8,0,1.5,0,2.3,0c0.1,0.2,0.1,0.3,0.2,0.5c1,0,2.1,0,3.1,0c0.1-0.2,0.1-0.3,0.2-0.5c0.9,0,1.8,0,2.7,0c0.1,0.2,0.2,0.4,0.2,0.6
			c0.8,0,1.6,0,2.5,0c0.1-0.2,0.1-0.3,0.2-0.6c0.1,0,0.2,0,0.5,0c-0.2,1.4-0.4,2.7-0.6,4.1c-0.9,0-1.7,0-2.7,0c0,1.3,0,2.6,0,3.9
			c0.6,0,1.3,0.1,2,0.1c-0.3,2-0.6,3.9-1,5.9c-0.3,0-0.6,0.1-0.9,0.1c-0.2,1.9-0.1,3.5,0.2,4.1c-1,6-2,12.1-3,18.2
			c-0.1,0-0.1,0-0.2,0c0-0.8,0-1.5,0-2.3c-1.1,0-2.2,0-3.3,0c0,1.3,0,2.6,0,3.9c1.1,0,2.1,0,3.2,0c-0.3,2-0.7,4-1,6
			c-0.7,0-1.4,0-2.2,0c0,1.4,0,2.6,0,4c0.5,0,1,0,1.5,0c-0.3,2-0.7,4-1,5.9c-0.2,0.1-0.4,0.2-0.5,0.2c0,0.1-0.1,0.2-0.1,0.2
			c0,0.5,0,1,0,1.5c0.1,1.8-0.3,3.5-0.6,5.2c-0.4,2.3-0.8,4.7-1.1,7.1c-0.3,1.9-0.7,3.9-1,5.9c-1.2,0-2.3,0-3.5,0c0,1.4,0,2.6,0,4
			c0.9,0,1.8,0,2.8,0c-0.3,2.1-0.7,4-1,6c-0.6,0-1.2,0.1-1.8,0.1c0,1.3,0,2.5,0,3.9c0.3,0,0.7,0.1,1.2,0.2c-0.4,2-0.5,4-1.1,5.9
			c-0.3,2.2-0.6,4.4-0.9,6.6c-8.8,0-17.6,0-26.5,0c0-0.4,0.1-0.7,0.1-1c0-0.2,0.1-0.4,0.1-0.6c-0.1-2.9,0.8-5.8,1.2-8.6
			c0.3-2.4,0.7-4.7,1.1-7.1c0.4-2.3,0.8-4.6,1.2-6.8c0.2-1.2,0.4-2.5,0.6-3.7c0.1,0.1,0.2,0.2,0.3,0.3c0.3-1.6,0.5-3.3,0.8-5
			c0.3,0,0.7-0.1,1.1-0.1c0-1.2,0-2.5,0-3.8c-0.1-0.1-0.2-0.2-0.4-0.4c0.1-0.4,0.2-0.8,0.2-1.2c0.1-1,0.1-1.9,0.2-2.9
			c0.1-1.1,0.3-2.1,0.5-3.2c0.4-2.4,0.8-4.8,1.2-7.2c0.3-1.9,0.6-3.7,1-5.6c0.1-0.3,0.1-0.7,0.1-1.1c-1,0-1,1-1.4,1.4
			c-0.5,0.5-0.8,1.1-1.2,1.9c0-0.7,0-1.2,0-1.8c-0.7,0-1.4,0-2.1,0c0,1.3,0,2.5,0,3.9c0.4,0,0.7,0.1,1.2,0.1c-1.1,1.9-2,3.9-3.2,5.7
			c-0.6,0.9-1.1,1.8-1.6,2.6c-0.2,0.3-0.3,0.5-0.6,0.9c0-1.2,0-2.1,0-3.1c-0.5-0.2-1-0.1-1.7-0.1c0,1.3,0,2.6,0,3.9
			c0.5,0,0.9,0.1,1.4,0.1c-0.1,0.2-0.2,0.5-0.3,0.6c-0.9,1.6-1.7,3.3-2.7,4.8c-0.9,1.3-1.8,2.6-2.4,4.1c-0.7,1.7-1.6,3.2-2.5,4.8
			c-0.9,1.7-2.2,3.3-3,5.1c-0.9,1.9-1.9,3.7-2.9,5.5c-0.5,1-1.3,2-1.8,3c-1.3,2.4-2.5,4.8-3.8,7.1c-0.7,1.2-1.5,2.4-2.2,3.6
			c-0.4,0.8-0.7,1.6-1.1,2.4C72.9,114.7,72.7,115,72.6,115.2z M36.6,23.3c0-1.3,0-2.6,0-3.9c-1.3,0-2.4,0-3.7,0c0,1.3,0,2.6,0,3.9
			C34.2,23.3,35.4,23.3,36.6,23.3z M38.8,19.4c0,1.4,0,2.6,0,3.9c1.3,0,2.5,0,3.8,0c0-1.3,0-2.6,0-3.9
			C41.2,19.4,40.1,19.4,38.8,19.4z M32.9,89.5c0,1.4,0,2.6,0,3.9c1.3,0,2.5,0,3.7,0c0-1.3,0-2.6,0-3.9
			C35.4,89.5,34.2,89.5,32.9,89.5z M126.7,83.4c0-1.4,0-2.6,0-3.9c-1.3,0-2.5,0-3.7,0c0,1.3,0,2.6,0,3.9
			C124.3,83.4,125.5,83.4,126.7,83.4z M33,83.3c1.3,0,2.5,0,3.7,0c0-1.3,0-2.6,0-3.8c-1.3,0-2.5,0-3.7,0C33,80.8,33,82,33,83.3z
			 M126.8,73.3c0-0.7,0-1.4,0-2c0-0.6,0.1-1.3-0.1-2c-0.6,0-1.2,0-1.8,0c-0.6,0-1.2-0.1-1.9,0.1c0,0.7,0,1.3,0,1.9
			c0,0.6-0.1,1.3,0.1,1.9C124.3,73.3,125.5,73.3,126.8,73.3z M36.7,73.4c0-0.7,0-1.3,0-2c0-0.6,0-1.3,0-1.9c-1.3,0-2.5,0-3.7,0
			c0,0.7,0,1.3,0,1.9c0,0.6,0,1.3,0,1.9C34.2,73.4,35.4,73.4,36.7,73.4z M126.7,23.3c0-1.4,0-2.6,0-3.9c-1.3,0-2.5,0-3.6,0
			c0,1.3,0,2.6,0,3.9C124.3,23.3,125.4,23.3,126.7,23.3z M123,63.3c1.3,0,2.5,0,3.7,0c0-1.3,0-2.6,0-3.9c-1.2,0-2.4,0-3.7,0
			C123,60.8,123,62,123,63.3z M36.7,59.5c-1.3,0-2.5,0-3.7,0c0,1.3,0,2.6,0,3.9c1.3,0,2.4,0,3.7,0C36.7,62,36.7,60.8,36.7,59.5z
			 M32.9,29.4c0,1.4,0,2.6,0,3.9c1.3,0,2.5,0,3.8,0c0-1.3,0-2.6,0-3.9C35.4,29.4,34.2,29.4,32.9,29.4z M38.8,29.4c0,0.7,0,1.3,0,2
			c0,0.6,0,1.3,0,1.9c1.3,0,2.5,0,3.7,0c0-1.3,0-2.6,0-3.9C41.2,29.4,40.1,29.4,38.8,29.4z M123,53.3c1.3,0,2.5,0,3.7,0
			c0-1.3,0-2.6,0-3.8c-1.3,0-2.5,0-3.7,0C123,50.8,123,52,123,53.3z M42.5,49.4c-0.7,0-1.3,0-1.9,0c-0.6,0-1.2-0.1-1.9,0.1
			c0,1.3,0,2.6,0,3.9c0.7,0,1.3,0,1.9,0c0.6,0,1.2,0.1,1.8-0.1C42.5,52,42.5,50.8,42.5,49.4z M36.7,49.4c-0.7,0-1.3,0-1.9,0
			c-0.6,0-1.2-0.1-1.9,0.1c0,1.3,0,2.6,0,3.9c0.7,0,1.3,0,1.9,0c0.6,0,1.2,0.1,1.8-0.1C36.7,52,36.7,50.8,36.7,49.4z M123,33.3
			c1.3,0,2.5,0,3.7,0c0-1.3,0-2.6,0-3.8c-1.3,0-2.5,0-3.7,0C123,30.8,123,32,123,33.3z M123.1,39.4c-0.2,0.7-0.2,2.6-0.1,3.9
			c1.2,0,2.4,0,3.6,0c0-1.3,0-2.6,0-3.9C125.5,39.4,124.3,39.4,123.1,39.4z M38.8,39.4c0,0.7,0,1.4,0,2c0,0.6-0.1,1.3,0.1,2
			c0.6,0,1.2,0,1.8,0c0.6,0,1.2,0.1,1.9-0.1c0-0.7,0-1.3,0-1.9c0-0.6,0.1-1.3-0.1-1.9C41.2,39.4,40,39.4,38.8,39.4z M36.7,43.3
			c0-1.4,0-2.6,0-3.9c-1.3,0-2.5,0-3.8,0c0,1.3,0,2.6,0,3.9C34.2,43.3,35.4,43.3,36.7,43.3z M120.9,109.3c-1.2,0-2.3,0-3.5,0
			c0,1.4,0,2.7,0,4.1c1.2,0,2.3,0,3.5,0C120.9,112,120.9,110.7,120.9,109.3z M117.4,63.3c1.2,0,2.3,0,3.5,0c0-1.3,0-2.6,0-3.9
			c-1.2,0-2.3,0-3.5,0C117.4,60.8,117.4,62,117.4,63.3z M120.9,19.4c-1.2,0-2.3,0-3.5,0c0,1.3,0,2.6,0,3.9c1.2,0,2.3,0,3.5,0
			C120.9,22,120.9,20.8,120.9,19.4z M117.4,69.5c0,1.4,0,2.6,0,3.9c1.2,0,2.3,0,3.4,0c0.2-1.2,0.2-3.2-0.1-3.9
			C119.7,69.5,118.6,69.5,117.4,69.5z M117.4,103.4c1.1,0,2.3,0,3.5,0c0-1.3,0-2.6,0-3.9c-1.2,0-2.3,0-3.5,0
			C117.4,100.8,117.4,102,117.4,103.4z M120.9,49.4c-1.2,0-2.4,0-3.5,0c0,0.7,0,1.4,0,2c0,0.6,0,1.3,0,2c1.2,0,2.3,0,3.5,0
			C120.9,52,120.9,50.8,120.9,49.4z M117.4,39.4c0,1.4,0,2.6,0,3.9c1.2,0,2.4,0,3.5,0c0-1.3,0-2.6,0-3.9
			C119.7,39.4,118.6,39.4,117.4,39.4z M120.9,29.4c-1.2,0-2.3,0-3.5,0c0,1.3,0,2.6,0,3.8c1.2,0,2.3,0,3.5,0
			C120.9,32,120.9,30.8,120.9,29.4z M120.9,83.4c0-1.4,0-2.6,0-3.9c-1.2,0-2.3,0-3.4,0c0,1.3,0,2.6,0,3.9
			C118.6,83.4,119.7,83.4,120.9,83.4z M120.9,93.4c0-1.4,0-2.6,0-3.9c-1.2,0-2.4,0-3.5,0c0,1.3,0,2.6,0,3.9
			C118.6,93.4,119.7,93.4,120.9,93.4z M132.6,23.3c0-1.4,0-2.6,0-3.9c-1.2,0-2.2,0-3.3,0c0,1.3,0,2.6,0,3.9
			C130.4,23.3,131.4,23.3,132.6,23.3z M132.6,29.5c-1.2,0-2.2,0-3.3,0c0,1.3,0,2.6,0,3.8c1.2,0,2.2,0,3.3,0
			C132.6,32,132.6,30.8,132.6,29.5z M129.3,43.3c1.1,0,2.2,0,3.3,0c0-1.3,0-2.6,0-3.9c-1.1,0-2.2,0-3.3,0
			C129.3,40.7,129.3,42,129.3,43.3z M111.5,109.3c0,1.4,0,2.8,0,4.1c1.1,0,2.1,0,3.1,0c0-1.4,0-2.7,0-4.1
			C113.6,109.3,112.6,109.3,111.5,109.3z M27.3,113.3c1.1,0,2.1,0,3.1,0c0-1.4,0-2.7,0-4c-1.1,0-2.1,0-3.1,0
			C27.3,110.7,27.3,112,27.3,113.3z M27.3,49.4c0,1.4,0,2.6,0,3.9c1.1,0,2.1,0,3.1,0c0-1.3,0-2.6,0-3.9
			C29.4,49.4,28.4,49.4,27.3,49.4z M30.4,103.4c0-1.4,0-2.6,0-3.9c-1.1,0-2,0-3,0c0,1.3,0,2.6,0,3.9
			C28.4,103.4,29.4,103.4,30.4,103.4z M27.3,19.4c0,1.4,0,2.6,0,3.9c1.1,0,2.1,0,3.1,0c0-1.3,0-2.6,0-3.9
			C29.4,19.4,28.4,19.4,27.3,19.4z M45.1,49.4c0,1.4,0,2.6,0,3.9c1.1,0,2,0,3,0c0-1.3,0-2.6,0-3.9C47.1,49.4,46.1,49.4,45.1,49.4z
			 M114.6,103.4c0-1.4,0-2.6,0-3.9c-1.1,0-2,0-3,0c0,1.3,0,2.6,0,3.9C112.6,103.4,113.6,103.4,114.6,103.4z M114.6,93.4
			c0-1.4,0-2.6,0-3.9c-1.1,0-2,0-3,0c0,1.3,0,2.6,0,3.9C112.6,93.4,113.6,93.4,114.6,93.4z M48.2,23.3c0-1.4,0-2.6,0-3.9
			c-1.1,0-2.1,0-3.1,0c0,1.3,0,2.6,0,3.9C46.1,23.3,47.1,23.3,48.2,23.3z M30.4,93.4c0-1.4,0-2.6,0-3.9c-1.1,0-2,0-3,0
			c0,1.3,0,2.6,0,3.9C28.4,93.4,29.4,93.4,30.4,93.4z M114.6,33.3c0-1.4,0-2.6,0-3.9c-1.1,0-2,0-3,0c0,1.3,0,2.6,0,3.9
			C112.6,33.3,113.6,33.3,114.6,33.3z M111.6,79.4c0,1.4,0,2.6,0,3.9c1.1,0,2,0,3,0c0-1.3,0-2.6,0-3.9
			C113.6,79.4,112.6,79.4,111.6,79.4z M111.6,49.4c0,1.4,0,2.6,0,3.9c1.1,0,2,0,3,0c0-1.3,0-2.6,0-3.9
			C113.6,49.4,112.6,49.4,111.6,49.4z M111.6,43.3c1.1,0,2.1,0,3,0c0-1.3,0-2.6,0-3.8c-1.1,0-2,0-3,0
			C111.6,40.8,111.6,42,111.6,43.3z M27.4,79.4c0,1.4,0,2.6,0,3.9c1.1,0,2,0,3,0c0-1.3,0-2.6,0-3.9C29.4,79.4,28.4,79.4,27.4,79.4z
			 M111.5,23.3c1.1,0,2.1,0,3,0c0-1.3,0-2.6,0-3.8c-1.1,0-2,0-3,0C111.5,20.7,111.5,22,111.5,23.3z M45.1,29.4c0,1.4,0,2.6,0,3.9
			c1.1,0,2,0,3,0c0-1.3,0-2.6,0-3.9C47.1,29.4,46.1,29.4,45.1,29.4z M27.3,33.3c1.1,0,2,0,3,0c0-1.3,0-2.6,0-3.9c-1,0-2,0-3,0
			C27.3,30.7,27.3,32,27.3,33.3z M27.3,63.4c0.6,0,1.1,0,1.6,0c0.5,0,1,0.1,1.5-0.1c0-0.6,0-1.3,0-1.9c0-0.6,0.1-1.3-0.1-2
			c-0.5,0-1,0-1.5,0c-0.5,0-1-0.1-1.5,0.1C27.3,60.8,27.3,62,27.3,63.4z M30.4,69.5c-1.1,0-2.1,0-3.1,0c0,0.7,0,1.3,0,1.9
			c0,0.6,0,1.3,0,1.9c1.1,0,2.1,0,3.1,0C30.4,72,30.4,70.8,30.4,69.5z M45.1,39.4c0,1.4,0,2.6,0,3.9c1,0,2,0,3,0c0-1.3,0-2.6,0-3.9
			C47.1,39.4,46.1,39.4,45.1,39.4z M114.5,73.3c0.2-0.7,0.2-2.6,0.1-3.9c-1,0-2,0-3,0c0,1.3,0,2.6,0,3.9
			C112.6,73.3,113.5,73.3,114.5,73.3z M111.6,63.2c0.7,0.2,1.9,0.2,3,0.1c0-1.3,0-2.5,0-3.8c-1,0-2,0-3,0
			C111.6,60.7,111.6,62,111.6,63.2z M30.3,43.3c0.2-0.7,0.2-2.6,0.1-3.9c-1,0-2,0-3,0c0,1.3,0,2.6,0,3.9
			C28.4,43.3,29.3,43.3,30.3,43.3z M24.2,109.3c-0.9,0-1.8,0-2.6,0c0,1.4,0,2.7,0,4.1c0.9,0,1.8,0,2.6,0
			C24.2,112,24.2,110.7,24.2,109.3z M105.7,109.3c0,1.4,0,2.8,0,4.1c0.9,0,1.8,0,2.6,0c0-1.4,0-2.7,0-4.1
			C107.5,109.3,106.6,109.3,105.7,109.3z M21.6,39.4c-0.2,0.7-0.2,2.6-0.1,3.9c0.8,0,1.7,0,2.6,0c0-1.3,0-2.6,0-3.9
			C23.3,39.4,22.5,39.4,21.6,39.4z M108.3,63.4c0-1.4,0-2.6,0-3.9c-0.9,0-1.8,0-2.6,0c0,1.3,0,2.6,0,3.9
			C106.6,63.4,107.5,63.4,108.3,63.4z M54,39.5c-0.9,0-1.8,0-2.6,0c0,1.3,0,2.6,0,3.9c0.9,0,1.8,0,2.6,0C54,42,54,40.8,54,39.5z
			 M105.7,89.5c0,1.3,0,2.5,0,3.9c0.9,0,1.8,0,2.7,0c0-1.3,0-2.6,0-3.9C107.5,89.5,106.7,89.5,105.7,89.5z M21.5,99.5
			c0,1.4,0,2.6,0,3.9c0.9,0,1.8,0,2.6,0c0-1.3,0-2.6,0-3.9C23.2,99.5,22.4,99.5,21.5,99.5z M105.7,29.4c0,1.4,0,2.6,0,3.9
			c0.9,0,1.8,0,2.6,0c0-1.3,0-2.6,0-3.9C107.5,29.4,106.6,29.4,105.7,29.4z M21.5,69.5c0,1.4,0,2.6,0,3.9c0.9,0,1.6,0,2.3,0
			c0.1,0,0.2,0,0.3-0.1c0.2-1.2,0.1-3.2-0.1-3.9C23.2,69.5,22.4,69.5,21.5,69.5z M51.3,63.2c0.7,0.2,1.5,0.2,2.6,0.1
			c0-1.3,0-2.5,0-3.8c-0.9,0-1.7,0-2.6,0C51.3,60.7,51.3,62,51.3,63.2z M24.2,29.5c-1,0-1.8,0-2.6,0c0,1.3,0,2.6,0,3.8
			c0.9,0,1.8,0,2.6,0C24.2,32,24.2,30.8,24.2,29.5z M54,69.5c-0.9,0-1.8,0-2.6,0c0,1.3,0,2.6,0,3.9c0.9,0,1.7,0,2.6,0
			C54,72,54,70.8,54,69.5z M21.5,93.2c0.7,0.2,1.5,0.2,2.6,0.1c0-1.3,0-2.5,0-3.8c-0.9,0-1.7,0-2.6,0C21.5,90.8,21.5,92,21.5,93.2z
			 M51.3,23.3c0.9,0,1.8,0,2.6,0c0-1.3,0-2.6,0-3.9c-0.9,0-1.8,0-2.6,0C51.3,20.7,51.3,22,51.3,23.3z M108.4,53.3c0-1.3,0-2.6,0-3.9
			c-0.9,0-1.7,0-2.6,0c0,1.3,0,2.6,0,3.9C106.6,53.3,107.4,53.3,108.4,53.3z M108.3,83.4c0-1.4,0-2.6,0-3.9c-0.9,0-1.8,0-2.6,0
			c0,1.3,0,2.6,0,3.9C106.6,83.4,107.5,83.4,108.3,83.4z M108.3,103.4c0-1.4,0-2.6,0-3.9c-0.9,0-1.8,0-2.6,0c0,1.3,0,2.6,0,3.9
			C106.6,103.4,107.5,103.4,108.3,103.4z M105.7,69.4c0,1.4,0,2.6,0,3.9c1,0,1.8,0,2.7,0c0-1.3,0-2.6,0-3.9
			C107.5,69.4,106.6,69.4,105.7,69.4z M24.1,53.3c0-1.4,0-2.6,0-3.9c-0.9,0-1.8,0-2.6,0c0,1.3,0,2.6,0,3.9
			C22.4,53.3,23.2,53.3,24.1,53.3z M21.5,59.4c0,1.4,0,2.6,0,3.9c0.9,0,1.8,0,2.6,0c0-1.3,0-2.6,0-3.9
			C23.2,59.4,22.4,59.4,21.5,59.4z M51.3,29.4c0,1.4,0,2.6,0,3.9c0.9,0,1.8,0,2.6,0c0-1.3,0-2.6,0-3.9C53,29.4,52.2,29.4,51.3,29.4z
			 M108.4,39.5c-1,0-1.8,0-2.7,0c0,0.7,0,1.3,0,1.9c0,0.6,0,1.3,0,1.9c1,0,1.8,0,2.7,0C108.4,42,108.4,40.8,108.4,39.5z M21.5,83.3
			c0.9,0,1.8,0,2.6,0c0-1.3,0-2.6,0-3.9c-0.9,0-1.8,0-2.6,0C21.5,80.8,21.5,82,21.5,83.3z M51.3,53.3c0.9,0,1.8,0,2.6,0
			c0-1.3,0-2.6,0-3.9c-0.9,0-1.8,0-2.6,0C51.3,50.8,51.3,52,51.3,53.3z M108.4,19.4c-0.9,0-1.8,0-2.6,0c0,1.3,0,2.6,0,3.9
			c0.9,0,1.8,0,2.6,0C108.4,22,108.4,20.8,108.4,19.4z M51.3,79.4c0,1.4,0,2.6,0,3.9c0.9,0,1.8,0,2.6,0c0-1.3,0-2.6,0-3.9
			C53,79.4,52.2,79.4,51.3,79.4z M15.6,109.3c0,1.4,0,2.8,0,4.1c0.8,0,1.5,0.1,2.3-0.1c0-1.4,0-2.7,0-4
			C17.1,109.3,16.4,109.3,15.6,109.3z M57.5,109.3c0,0.8,0,1.4,0,2.1c0,0.7-0.1,1.4,0.1,2c0.7,0,1.4,0,2.1,0
			c0.2-1.2,0.2-3.4-0.1-4.1C59,109.3,58.3,109.3,57.5,109.3z M59.8,33.3c0-1.3,0-2.6,0-3.9c-0.8,0-1.5,0-2.2,0c0,1.3,0,2.6,0,3.9
			C58.3,33.3,59,33.3,59.8,33.3z M15.6,79.5c0,0.7,0,1.4,0,2c0,0.6-0.1,1.3,0.1,1.9c0.8,0,1.5,0.1,2.2-0.1c0-0.7,0-1.3,0-1.9
			c0-0.6,0.1-1.3-0.1-1.9C17.1,79.5,16.4,79.5,15.6,79.5z M15.6,89.5c0,0.7,0,1.4,0,2c0,0.6-0.1,1.3,0.1,1.9c0.8,0,1.5,0.1,2.2-0.1
			c0-0.7,0-1.3,0-1.9c0-0.6,0.1-1.3-0.1-1.9C17.1,89.5,16.4,89.5,15.6,89.5z M59.8,69.5c-0.8,0-1.5,0-2.2,0c0,1.3,0,2.6,0,3.8
			c0.8,0,1.5,0,2.2,0C59.8,72,59.8,70.8,59.8,69.5z M59.8,99.5c-0.8,0-1.5,0-2.2,0c0,1.3,0,2.6,0,3.9c0.8,0,1.5,0,2.2,0
			C59.8,102.1,59.8,100.8,59.8,99.5z M17.9,69.5c-0.8,0-1.5,0-2.2,0c0,1.3,0,2.6,0,3.8c0.8,0,1.5,0,2.2,0
			C17.9,72,17.9,70.8,17.9,69.5z M59.8,93.4c0-0.7,0-1.4,0-2c0-0.6,0.1-1.3-0.1-2c-0.7,0.1-1.5-0.1-2.2,0.1c0,0.7,0,1.3,0,1.9
			c0,0.6-0.1,1.3,0.1,1.9C58.4,93.4,59,93.4,59.8,93.4z M59.8,63.3c0-1.4,0-2.6,0-4c-0.8,0-1.6-0.1-2.3,0.1c0,1.3,0,2.6,0,3.9
			C58.4,63.3,59,63.3,59.8,63.3z M15.7,99.5c0,1.4,0,2.6,0,3.9c0.8,0,1.5,0,2.2,0c0-1.3,0-2.6,0-3.9C17.1,99.5,16.4,99.5,15.7,99.5z
			 M57.5,39.4c0,0.7,0,1.4,0,2c0,0.6-0.1,1.3,0.1,1.9c0.8,0,1.5,0.1,2.2-0.1c0-0.7,0-1.3,0-1.9c0-0.6,0.1-1.3-0.1-1.9
			C59,39.4,58.3,39.4,57.5,39.4z M57.6,49.4c0,1.4,0,2.6,0,3.9c0.8,0,1.5,0,2.2,0c0-1.3,0-2.6,0-3.9C59,49.4,58.3,49.4,57.6,49.4z
			 M57.6,79.4c0,1.4,0,2.6,0,3.9c0.8,0,1.5,0,2.2,0c0-1.3,0-2.6,0-3.9C59,79.4,58.3,79.4,57.6,79.4z M102.1,113.4c0-1.4,0-2.8,0-4.1
			c-0.7,0-1.3,0-2,0c0,1.4,0,2.7,0,4.1C100.8,113.4,101.4,113.4,102.1,113.4z M100.1,39.4c0,1.4,0,2.6,0,3.9c0.7,0,1.3,0,2,0
			c0-1.3,0-2.6,0-3.9C101.4,39.4,100.8,39.4,100.1,39.4z M100.1,103.3c0.7,0,1.4,0,2,0c0-1.3,0-2.6,0-3.9c-0.7,0-1.3,0-2,0
			C100.1,100.8,100.1,102,100.1,103.3z M102.1,49.5c-0.7,0-1.4,0-2.1,0c0,1.3,0,2.6,0,3.8c0.8,0,1.4,0,2.1,0
			C102.1,52,102.1,50.8,102.1,49.5z M100.1,29.4c0,1.4,0,2.6,0,3.9c0.8,0,1.4,0,2.1,0c0-1.3,0-2.6,0-3.9
			C101.4,29.4,100.8,29.4,100.1,29.4z M102.1,89.5c-0.7,0-1.4,0-2,0c0,1.3,0,2.6,0,3.8c0.7,0,1.3,0,2,0
			C102.1,92,102.1,90.8,102.1,89.5z M11.6,113.4c0-1.4,0-2.7,0-4.1c-0.6,0-1.2,0-1.8,0c0,1.4,0,2.7,0,4.1
			C10.4,113.4,11,113.4,11.6,113.4z M9.8,99.5c0,1.3,0,2.6,0,3.9c0.6,0,1.2,0,1.8,0c0-1.3,0-2.6,0-3.9C11,99.5,10.5,99.5,9.8,99.5z
			 M65.4,113.4c0-1.4,0-2.8,0-4.1c-0.6,0-1.1,0-1.6,0c0,1.4,0,2.7,0,4.1C64.4,113.4,64.9,113.4,65.4,113.4z M95.9,49.5
			c-0.6,0-1.1,0-1.6,0c0,1.3,0,2.6,0,3.8c0.6,0,1.1,0,1.6,0C95.9,52,95.9,50.8,95.9,49.5z M63.8,89.5c0,0.7,0,1.4,0,2
			c0,0.6-0.1,1.3,0.1,1.9c0.5,0,1.1,0.1,1.6-0.1c0-0.6,0-1.3,0-1.9c0-0.6,0.1-1.3-0.1-1.9C64.8,89.5,64.4,89.5,63.8,89.5z
			 M63.8,103.4c0.6,0,1.1,0,1.6,0c0-1.3,0-2.6,0-3.9c-0.6,0-1.1,0-1.6,0C63.8,100.8,63.8,102,63.8,103.4z M63.8,83.3
			c0.6,0,1.1,0,1.6,0c0-1.3,0-2.6,0-3.9c-0.6,0-1.1,0-1.6,0C63.8,80.8,63.8,82,63.8,83.3z M95.8,63.4c0-1.4,0-2.6,0-3.9
			c-0.6,0-1.1,0-1.6,0c0,1.3,0,2.6,0,3.9C94.8,63.4,95.3,63.4,95.8,63.4z M95.9,39.5c-0.6,0-1.1,0-1.6,0c0,1.3,0,2.6,0,3.9
			c0.6,0,1.1,0,1.6,0C95.9,42,95.9,40.8,95.9,39.5z M63.8,69.5c0,0.7,0,1.4,0,2c0,0.6-0.1,1.3,0.1,1.9c0.5,0,1,0,1.6,0
			c0-1.3,0-2.6,0-3.9C64.8,69.5,64.4,69.5,63.8,69.5z M63.8,59.4c0,1.3,0,2.6,0,3.9c0.6,0,1.1,0,1.6,0c0-1.3,0-2.6,0-3.9
			C64.9,59.4,64.4,59.4,63.8,59.4z M71.2,113.4c0-1.4,0-2.8,0-4.1c-0.4,0-0.8,0-1.1,0c0,1.4,0,2.7,0,4.1
			C70.5,113.4,70.8,113.4,71.2,113.4z M71.2,93.4c0-1.4,0-2.6,0-3.9c-0.4,0-0.8,0-1.1,0c0,1.3,0,2.6,0,3.9
			C70.5,93.4,70.8,93.4,71.2,93.4z M88.4,49.4c0,1.4,0,2.6,0,3.9c0.2,0,0.4,0,0.6,0c0.2,0,0.4,0,0.6-0.1c0-1.3,0-2.6,0-3.9
			C89.2,49.4,88.9,49.4,88.4,49.4z M71.3,99.5c-0.4,0-0.8,0-1.2,0c0,1.3,0,2.6,0,3.9c0.4,0,0.8,0,1.2,0
			C71.3,102.1,71.3,100.8,71.3,99.5z M89.6,83.4c0-1.4,0-2.6,0-3.9c-0.4,0-0.8,0-1.1,0c0,1.3,0,2.6,0,3.9
			C88.8,83.4,89.2,83.4,89.6,83.4z M71.3,83.4c0-1.4,0-2.6,0-4c-0.5,0-0.9,0-1.2,0.1c0,1.4,0,2.6,0,3.9
			C70.5,83.4,70.8,83.4,71.3,83.4z M88.4,69.4c0,1.4,0,2.6,0,3.9c0.4,0,0.8,0,1.1,0c0-1.3,0-2.6,0-3.9
			C89.2,69.4,88.8,69.4,88.4,69.4z M89.6,63.4c0-1.4,0-2.6,0-3.9c-0.4,0-0.8,0-1.1,0c0,1.3,0,2.6,0,3.9
			C88.8,63.4,89.2,63.4,89.6,63.4z M77.1,93.4c0-1.4,0-2.6,0-3.9c-0.3,0-0.5,0-0.7,0.1c0,1.3,0,2.6,0,3.9
			C76.6,93.4,76.8,93.4,77.1,93.4z M83.3,93.4c0-1.4,0-2.6,0-3.9c-0.3,0-0.5,0-0.7,0.1c0,1.3,0,2.6,0,3.9
			C82.9,93.4,83.1,93.4,83.3,93.4z M77.1,103.4c0-1.4,0-2.6,0-3.9c-0.3,0-0.5,0-0.7,0c0,1.3,0,2.6,0,3.9
			C76.6,103.4,76.8,103.4,77.1,103.4z M82.6,83.4c0.3,0,0.6-0.1,0.8-0.1c0-1.3,0-2.6,0-3.9c-0.3,0-0.5,0.1-0.8,0.1
			C82.6,80.8,82.6,82,82.6,83.4z M76.3,79.5c0,1.3,0,2.6,0,3.9c0.3,0,0.5,0,0.7,0c0-1.3,0-2.6,0-3.9C76.8,79.5,76.6,79.5,76.3,79.5z
			 M83.3,73.4c0-1.4,0-2.6,0-3.9c-0.3,0-0.5,0-0.7,0c0,1.3,0,2.6,0,3.9C82.9,73.4,83.1,73.4,83.3,73.4z M77.1,73.4
			c0-1.4,0-2.6,0-3.9c-0.3,0-0.5,0.1-0.7,0.1c0,1.3,0,2.6,0,3.9C76.6,73.4,76.8,73.4,77.1,73.4z M82.6,59.4c0,1.4,0,2.6,0,3.9
			c0.3,0,0.5,0,0.7-0.1c0-1.3,0-2.6,0-3.9C83.1,59.4,82.9,59.4,82.6,59.4z"/>
		<path d="M369.9,84.2c-16.3,0-32.5,0-48.8,0c-0.9,3.6-0.8,7,1.5,10c1.3,1.8,3.1,2.8,5.2,3.3c3.5,0.8,6.9,0.5,10.2-0.9
			c2.5-1,4.5-2.6,5.9-5c0.1-0.1,0.2-0.2,0.3-0.4c8.2,0,16.4,0,24.7,0c-0.1,0.4-0.2,0.7-0.3,1.1c-2.9,7.8-8,13.8-15,18.1
			c-4.8,2.9-10,4.7-15.5,5.7c-4.5,0.8-9.1,1-13.7,0.7c-5-0.3-10-1.2-14.6-3.5c-7.6-3.7-12.3-9.8-14.2-17.9c-0.6-2.3-0.8-4.7-0.9-7.1
			c-0.1-8.7,1.6-17,5.4-24.8c0.1-0.2,0.1-0.3,0.2-0.6c-0.5-0.1-0.9-0.2-1.3-0.3c-2.1-0.4-4.3-0.6-6.4-0.6c-5.3,0-9.6,2.3-12.9,6.5
			c-2,2.5-3.1,5.5-3.5,8.7c-0.4,2.7-0.9,5.4-1.3,8.1c-0.4,2.4-0.8,4.8-1.2,7.2c-0.4,2.6-0.9,5.3-1.3,7.9c-0.4,2.3-0.8,4.6-1.2,7
			c-0.4,2.7-0.9,5.4-1.3,8.1c-0.2,0.1-0.3,0.2-0.5,0.2c-8.8,0-17.6,0-26.5,0c0-0.3,0-0.6,0-0.8c4.1-24.8,8.3-49.6,12.4-74.4
			c0.9-0.2,25.3-0.2,26.4,0c-0.8,4.7-1.5,9.4-2.3,14.2c0.3,0,0.4,0,0.7,0c0.2-0.4,0.4-0.9,0.6-1.3c1.2-2.5,2.6-4.9,4.4-7
			c2.9-3.4,6.6-5.7,11.1-6.6c2.9-0.6,5.7-0.4,8.6,0.2c0.5,0.1,1,0.2,1.6,0.4c0.2,0.8-0.1,1.5-0.2,2.2c-0.5,3.2-1.1,6.3-1.6,9.5
			c-0.3,1.9-0.7,3.9-1,6.1c0.3-0.4,0.5-0.7,0.7-0.9c6.2-8.4,14.2-13.9,24.3-16.5c2.3-0.6,4.7-0.9,7.1-1.2c2.5-0.3,5.1-0.3,7.6-0.1
			c4.7,0.2,9.3,1.1,13.6,3.2c7,3.3,11.6,8.8,13.9,16.2c1,3.1,1.4,6.3,1.5,9.6c0.1,3.4-0.2,6.7-0.8,10c-0.3,1.8-0.6,3.6-0.9,5.4
			C370,84,370,84,369.9,84.2z M323.9,69.4c7.9,0,15.6,0,23.4,0c0.1-0.1,0.1-0.3,0.1-0.4c0-0.6,0.1-1.1,0.1-1.7
			c0-3.8-2.3-7.2-6.1-8.3c-2-0.6-4-0.8-6.1-0.4c-5.4,1.1-9.2,4.1-11.1,9.4C324.1,68.4,324,68.9,323.9,69.4z"/>
		<path d="M177.2,39.4c4.3-0.1,8.6,0.4,12.9,1.7c4.2,1.2,7.9,3.3,11.2,6.2c4.1,3.7,6.7,8.4,8,13.7c0.9,3.6,1.2,7.3,1,10.9
			c-0.4,7.5-2.1,14.7-5.6,21.3c-5.6,10.8-14.2,18-25.8,21.7c-3.1,1-6.4,1.5-9.7,1.8c-2.7,0.2-5.3,0.3-8,0.1c-4.7-0.2-9.4-1-13.7-3
			c-8.1-3.6-13.3-9.7-15.5-18.3c-0.7-2.7-1.1-5.5-1.1-8.3c-0.1-8.8,1.7-17.1,5.9-24.8c6.2-11.5,15.7-18.8,28.4-21.9
			C168.8,39.8,172.9,39.3,177.2,39.4z M182.5,71.8c0-2-0.1-4-0.7-6c-0.6-2-1.4-3.9-3.1-5.2c-2.2-1.8-4.7-2-7.4-1.4
			c-2.1,0.5-3.9,1.7-5.4,3.2c-1.7,1.8-3,3.8-4,6.1c-1.6,3.6-2.4,7.3-2.9,11.2c-0.4,2.9-0.5,5.9,0,8.8c0.3,1.8,0.9,3.4,1.9,4.9
			c1.5,2.2,3.6,3.3,6.2,3.4c2.7,0.1,5.1-0.9,7.1-2.6c2-1.7,3.5-3.9,4.6-6.2C181.3,82.9,182.3,77.5,182.5,71.8z"/>
		<path d="M220.6,40.3c9.1,0,18,0,26.9,0c0.1,0.1,0.1,0.1,0.1,0.1c0,0,0,0.1,0,0.1c-4.2,25-8.3,50-12.5,75.1c-9.1,0-18,0-27.1,0
			C212.2,90.5,216.4,65.4,220.6,40.3z"/>
		<path d="M239.3,7.8c2.8,0,5.4,0.7,7.6,2.5c3.1,2.5,4.3,5.7,3.8,9.7c-0.8,6.2-6.5,10.9-11.4,12.1c-2.6,0.7-5.2,0.8-7.8,0
			c-3.8-1.2-6.4-3.6-7.5-7.4c-0.7-2.6-0.3-5.1,0.8-7.5c2.3-4.8,6.2-7.7,11.3-9C237.2,7.9,238.3,7.9,239.3,7.8z"/>
		<path d="M368.1,9c-6.2,7.4-12.4,14.7-18.5,22c-6,0-11.9,0-17.9,0c4.4-7.4,8.8-14.7,13.2-22C352.5,9,360.2,9,368.1,9z"/>
	</g>
</g>
</svg>
